{
    "asset" : {
        "generator" : "Khronos glTF Blender I/O v1.7.33",
        "version" : "2.0"
    },
    "scene" : 0,
    "scenes" : [
        {
            "name" : "Scene",
            "nodes" : [
                0,
                1
            ]
        }
    ],
    "nodes" : [
        {
            "mesh" : 0,
            "name" : "\u7403\u4f53",
            "scale" : [
                2.539543390274048,
                2.539543390274048,
                2.539543390274048
            ]
        },
        {
            "mesh" : 1,
            "name" : "\u7403\u4f53.001",
            "scale" : [
                0.6712514758110046,
                0.6712514758110046,
                0.6712514758110046
            ]
        }
    ],
    "animations" : [
        {
            "channels" : [
                {
                    "sampler" : 0,
                    "target" : {
                        "node" : 1,
                        "path" : "rotation"
                    }
                },
                {
                    "sampler" : 1,
                    "target" : {
                        "node" : 1,
                        "path" : "translation"
                    }
                }
            ],
            "name" : "\u7403\u4f53.001Action.001",
            "samplers" : [
                {
                    "input" : 8,
                    "interpolation" : "LINEAR",
                    "output" : 9
                },
                {
                    "input" : 10,
                    "interpolation" : "STEP",
                    "output" : 11
                }
            ]
        }
    ],
    "materials" : [
        {
            "doubleSided" : true,
            "name" : "\u6750\u8d28",
            "pbrMetallicRoughness" : {
                "baseColorFactor" : [
                    0.17928078770637512,
                    0.8000000715255737,
                    0.1733810156583786,
                    1
                ],
                "metallicFactor" : 0,
                "roughnessFactor" : 0.5
            }
        },
        {
            "doubleSided" : true,
            "name" : "\u6750\u8d28.001",
            "pbrMetallicRoughness" : {
                "baseColorFactor" : [
                    0.8000000715255737,
                    0.5021160840988159,
                    0.1461784541606903,
                    1
                ],
                "metallicFactor" : 0,
                "roughnessFactor" : 0.5
            }
        }
    ],
    "meshes" : [
        {
            "name" : "\u7403\u4f53",
            "primitives" : [
                {
                    "attributes" : {
                        "POSITION" : 0,
                        "NORMAL" : 1,
                        "TEXCOORD_0" : 2
                    },
                    "indices" : 3,
                    "material" : 0
                }
            ]
        },
        {
            "name" : "\u7403\u4f53.001",
            "primitives" : [
                {
                    "attributes" : {
                        "POSITION" : 4,
                        "NORMAL" : 5,
                        "TEXCOORD_0" : 6
                    },
                    "indices" : 7,
                    "material" : 1
                }
            ]
        }
    ],
    "accessors" : [
        {
            "bufferView" : 0,
            "componentType" : 5126,
            "count" : 31744,
            "max" : [
                0.9872310161590576,
                0.9975767135620117,
                0.9872307181358337
            ],
            "min" : [
                -0.9872304201126099,
                -0.9975767135620117,
                -0.9872304201126099
            ],
            "type" : "VEC3"
        },
        {
            "bufferView" : 1,
            "componentType" : 5126,
            "count" : 31744,
            "type" : "VEC3"
        },
        {
            "bufferView" : 2,
            "componentType" : 5126,
            "count" : 31744,
            "type" : "VEC2"
        },
        {
            "bufferView" : 3,
            "componentType" : 5123,
            "count" : 47616,
            "type" : "SCALAR"
        },
        {
            "bufferView" : 4,
            "componentType" : 5126,
            "count" : 31744,
            "max" : [
                5.473259925842285,
                4.6571550369262695,
                0.960791826248169
            ],
            "min" : [
                3.4987988471984863,
                2.6620090007781982,
                -1.0136693716049194
            ],
            "type" : "VEC3"
        },
        {
            "bufferView" : 5,
            "componentType" : 5126,
            "count" : 31744,
            "type" : "VEC3"
        },
        {
            "bufferView" : 6,
            "componentType" : 5126,
            "count" : 31744,
            "type" : "VEC2"
        },
        {
            "bufferView" : 7,
            "componentType" : 5123,
            "count" : 47616,
            "type" : "SCALAR"
        },
        {
            "bufferView" : 8,
            "componentType" : 5126,
            "count" : 26,
            "max" : [
                1.0416666666666667
            ],
            "min" : [
                0
            ],
            "type" : "SCALAR"
        },
        {
            "bufferView" : 9,
            "componentType" : 5126,
            "count" : 26,
            "type" : "VEC4"
        },
        {
            "bufferView" : 10,
            "componentType" : 5126,
            "count" : 1,
            "max" : [
                0
            ],
            "min" : [
                0
            ],
            "type" : "SCALAR"
        },
        {
            "bufferView" : 11,
            "componentType" : 5126,
            "count" : 1,
            "type" : "VEC3"
        }
    ],
    "bufferViews" : [
        {
            "buffer" : 0,
            "byteLength" : 380928,
            "byteOffset" : 0
        },
        {
            "buffer" : 0,
            "byteLength" : 380928,
            "byteOffset" : 380928
        },
        {
            "buffer" : 0,
            "byteLength" : 253952,
            "byteOffset" : 761856
        },
        {
            "buffer" : 0,
            "byteLength" : 95232,
            "byteOffset" : 1015808
        },
        {
            "buffer" : 0,
            "byteLength" : 380928,
            "byteOffset" : 1111040
        },
        {
            "buffer" : 0,
            "byteLength" : 380928,
            "byteOffset" : 1491968
        },
        {
            "buffer" : 0,
            "byteLength" : 253952,
            "byteOffset" : 1872896
        },
        {
            "buffer" : 0,
            "byteLength" : 95232,
            "byteOffset" : 2126848
        },
        {
            "buffer" : 0,
            "byteLength" : 104,
            "byteOffset" : 2222080
        },
        {
            "buffer" : 0,
            "byteLength" : 416,
            "byteOffset" : 2222184
        },
        {
            "buffer" : 0,
            "byteLength" : 4,
            "byteOffset" : 2222600
        },
        {
            "buffer" : 0,
            "byteLength" : 12,
            "byteOffset" : 2222604
        }
    ],
    "buffers" : [
        {
            "byteLength" : 2222616,
            "uri" : "www.bin"
        }
    ]
}
